<mxfile host="app.diagrams.net" modified="2024-03-27T14:43:25.510Z" agent="Mozilla/5.0 (Windows NT 10.0; Win64; x64) AppleWebKit/537.36 (KHTML, like Gecko) Chrome/122.0.0.0 Safari/537.36" etag="gHuMkNgnlP8ggwp-TM4n" version="24.2.0" type="github">
  <diagram name="Page-1" id="1BhXH5LSy_lLA7fKclFY">
    <mxGraphModel dx="880" dy="468" grid="1" gridSize="10" guides="1" tooltips="1" connect="1" arrows="1" fold="1" page="1" pageScale="1" pageWidth="850" pageHeight="1100" math="0" shadow="0">
      <root>
        <mxCell id="0" />
        <mxCell id="1" parent="0" />
        <mxCell id="s2s8hi-YjFrV1YUbSxP1-1" value="" style="shape=image;verticalLabelPosition=bottom;labelBackgroundColor=none;verticalAlign=top;aspect=fixed;imageAspect=0;image=data:image/png,iVBORw0KGgoAAAANSUhEUgAAADgAAABMCAYAAAA4NXTJAAAH0ElEQVR4AeVX628UVRSfP4ZditaYyiPigw+iftDsKigiJH4BxEaLgkhiFITEKWmARCSBaKQP2DUxJkb84AcxJmSXRDHEpEbCS7C7mG4rdNvttrs7D3LMuTPnzmNndu7Mtlszfrg5c+8959zf7/5+s51K09PTEOchxZkccos/wZmZGWbRuEamYFzJIS+pbXLT0zA18DZMbFkL5eIYtN3P5qjJ156A8mcH23IYI4ig2hmljT1QfKoLZi791FYfO4bKbzkorl8B4y/1tNWzbYKVK5cZOQRz7+C2tsDYCZYPbWcEsS+eYd8L89w2wSm5lwMpbWjvtu3Axzf08L7lw29GJ1ipVFhx1Fja+AgHgjal247aD+uYK9av4H1Lm1ZB1H5MwajFlWuj3J5oJRzlgb7IYAjHVL/lCuo7c/OPSH0lahollo/s4rdMQCY2rWzLEYij9PLKpr7lo7sj9WUEsWmUMfnqmiYgzKbXRiP1YxjwR8tmT3qe2LwmUs+WBPGl9yWO9nzaek8ICMapI7v862zvvFdvL1dQ78rtG6xvS1yu/i0JegGgtfKx3Z43jWBQWcoLG0ubVvv2nT6+L3RfaXZ2lhWFjZNbHvUFgsrOXv89fN8/r/j3XL8CJrauhbA4mYJhi6rF2772JDuVj+0JDQZrqN4vzhZuheobScHGdx9BbcdyqG1rMXq7Af9+lV5ZJRxrvd2te+5IQv3ch6GcwQiigmGGNrwW9BMJ0HclW46/n+0KVISUwtygfnimNvRYKKyhCVYnx0A/mwQ9kwRdXtYSVGXrcmGCmNuK4P3DCePMMwmo3i0KkwxNsHH+kHEQEjyTBP0DfxWVN5LCBNXeFo7AM/A8czR+lMUJVqtVliwatZF1/CB24FAC9Hd9wPUlQcSmLe2JvYcscnimOrwORPEyBf2S6b3k+5Uy6CPOwxjJk6iiN0kRm/rasy8J2inTmjYFEQNi47hcItlxS35JXuuNn79wqmc/9Kg3QRGbYo7X+6dhT/sZtufGpbMtSRJ+RhAnImN+/CpoQ12+h+oHPEj2JeGOzycd/oLint7nQfCgPzlt8AGYmxwTwuwgSLITWa/5/D9/gTbyuDfJ4QTo+5pJljf7/9jgXpN67yVAH/EmqI08CXMTtxzkvHASBwdBWhSJyvn93u/j5wnQ33GSrL+e8P01bex05rJa7GGzI3seSYLy/V4HMRGc0tzcHCuKEus3LoB2+qFmMJ84QWs+NvW056fN5LTBB6Fx9YdIOJmCUcjh7bG6ShmUL18A/awL2MfOjwAvm7rteV929cA/CZnnjHPovJCxLQU5yWoVGvkTTsviR8D7lpJeNsU1/v5hrt2WI0loXDjWFjnExwiiEgsxamO/gjrYYwE9bX0EoE3xv3369sRnXGME9ywDHXNNgurgw1Abu7wgmBwK+pEkpdz7nuvVCmhfb7Usa/sImNpofZvis6FeAnTMMckpX23mxDz728QQ2V9QBe0XoPwybP3NHDCUqm23/lzUdxhr2oCp3HAXYI29x0I8S/Pz86zpYsTa+HXQhlYbah5IgPaW+eeC7LnfIKcNrYF66cai4GAKEjm6MdG5WF4VtHM7QceP8r0JuPvicmD23Isf0QlQz/Vy1cT6Wb8XIvmLqiBeGIFQRr8B/WQ3zO9MAlpVO9UNjdFv+T7lLXRkBLFpJ0btXgEaR58B5fjzMH/vTkfOdBCkGyeyQXPRvKA+i7nvIEiA4xSlWq3GrBLX6FDQjyQp6t73W6e8/8J+/BXE27YPvHX73P3st++3TvVLte9Q0A+MGxzNKYat62Q+I0gHxjFygvV6nVnTHYm06Drl+dV1ep8R9DvUDdI9j1rn7rOYc4lAxjUygkgursNBEK1iJxo0p9ygvKXcdxAkwHGKUqPRYKrFNbZUkEiHVTSorpP7/w8F8UZpoFr0TDftNRfNo9qlynco6AZDoCj67futB9V1Yp8RJIBxjJygoigOawbN6TKC8pZ6nxGMCiJqXScvRyKQcY2MIJJzD7xl95rIPKiu0/sOgu7Dg+ZEOChvKfcdBAmweMyBLEkg8ZGCTEEBpZCBlCRDDp2RkyGVKXA35GQzx8M1jnOxh5zjdY69oFrbvqSqqqMJzd2RDuDrxSykJAssXzf70ZwI0jwvp9kl0LypL9VjfxtByndH33qzT2QFc7IEcq753TUOzIGM4HKypW4qAwVFAS8FC5mUlUekTAXxHMMh1mUSKZHIFXTfTOs5WtOwoHceEswzZ6h5w6KU51aQ1inyfeYQCeS84TDsI6UyUCSFBSNTEJvTwFuhZzq0eZ5nBPNUh4eb7yECUtU8U5DV5WVIZ4sGWVUFJJAtmqCpHvP5e2ySKmQgLec5FkUxLpXOFMOpQkQFC5BNO98lJMNsy248jIJFyKRSnHQxm2bWV8130Lpk61KJnEhkBO0KCT8z1WSgG8W6PL6XXEHz9k0FqS8pSHOmtkR9ipBNmz2KWUjzdRWQuGRT1Kq33Oe1xglqmsbtgIlBc9bMZk1mUTlv1qFFDYKadtGwXzrL3p+L/fSjYcT+i5oBnlk0Df39aeOSkKAsQz9Z16wPwuXe5wTt7N1J9j0v8rQftW4x6yUCFdfIFLSTw2f73K4Y7Xnt0547n+ZLtc8UjHp41LpOknYQJMBxipKu68ySREp0LpoXtu9C5/8L0eB9izRBiQEAAAAASUVORK5CYII=;fillColor=#21C0A5;strokeColor=#006658;fontColor=#5C5C5C;" parent="1" vertex="1">
          <mxGeometry x="399" y="201.5" width="51.58" height="70" as="geometry" />
        </mxCell>
        <mxCell id="s2s8hi-YjFrV1YUbSxP1-25" value="" style="sketch=0;outlineConnect=0;dashed=0;verticalLabelPosition=bottom;verticalAlign=top;align=center;html=1;fontSize=12;fontStyle=0;aspect=fixed;shape=mxgraph.aws4.resourceIcon;resIcon=mxgraph.aws4.table;fillColor=#a8c48d;fontColor=#ffffff;strokeColor=#2D7600;" parent="1" vertex="1">
          <mxGeometry x="280" y="188" width="53" height="53" as="geometry" />
        </mxCell>
        <mxCell id="s2s8hi-YjFrV1YUbSxP1-23" value="" style="edgeStyle=orthogonalEdgeStyle;rounded=0;orthogonalLoop=1;jettySize=auto;html=1;strokeColor=#006658;fontColor=#5C5C5C;fillColor=#21C0A5;" parent="1" source="s2s8hi-YjFrV1YUbSxP1-3" target="s2s8hi-YjFrV1YUbSxP1-20" edge="1">
          <mxGeometry relative="1" as="geometry" />
        </mxCell>
        <mxCell id="s2s8hi-YjFrV1YUbSxP1-3" value="" style="sketch=0;pointerEvents=1;shadow=0;dashed=0;html=1;strokeColor=#006658;fillColor=#21C0A5;labelPosition=center;verticalLabelPosition=bottom;verticalAlign=top;outlineConnect=0;align=center;shape=mxgraph.office.concepts.documents;labelBackgroundColor=none;fontColor=#5C5C5C;" parent="1" vertex="1">
          <mxGeometry x="150" y="201.5" width="46" height="54" as="geometry" />
        </mxCell>
        <mxCell id="s2s8hi-YjFrV1YUbSxP1-27" style="edgeStyle=orthogonalEdgeStyle;rounded=0;orthogonalLoop=1;jettySize=auto;html=1;strokeColor=#006658;fontColor=#5C5C5C;fillColor=#21C0A5;" parent="1" source="s2s8hi-YjFrV1YUbSxP1-8" target="s2s8hi-YjFrV1YUbSxP1-3" edge="1">
          <mxGeometry relative="1" as="geometry" />
        </mxCell>
        <mxCell id="s2s8hi-YjFrV1YUbSxP1-8" value="" style="sketch=0;pointerEvents=1;shadow=0;dashed=0;html=1;strokeColor=#b85450;fillColor=#f8cecc;labelPosition=center;verticalLabelPosition=bottom;verticalAlign=top;outlineConnect=0;align=center;shape=mxgraph.office.concepts.learn;" parent="1" vertex="1">
          <mxGeometry x="40" y="200" width="56" height="57" as="geometry" />
        </mxCell>
        <mxCell id="s2s8hi-YjFrV1YUbSxP1-9" value="Requirements" style="text;html=1;align=center;verticalAlign=middle;whiteSpace=wrap;rounded=0;fontColor=#000000;fontStyle=0" parent="1" vertex="1">
          <mxGeometry x="47" y="257" width="44" height="13" as="geometry" />
        </mxCell>
        <mxCell id="s2s8hi-YjFrV1YUbSxP1-11" value="Manual Test case" style="text;html=1;align=center;verticalAlign=middle;whiteSpace=wrap;rounded=0;fontColor=#000000;fontStyle=0" parent="1" vertex="1">
          <mxGeometry x="140" y="267" width="60" height="13" as="geometry" />
        </mxCell>
        <mxCell id="s2s8hi-YjFrV1YUbSxP1-20" value="Automation script" style="sketch=0;outlineConnect=0;gradientColor=none;fontColor=#000000;strokeColor=none;fillColor=#000000;dashed=0;verticalLabelPosition=bottom;verticalAlign=top;align=center;html=1;fontSize=12;fontStyle=0;aspect=fixed;shape=mxgraph.aws4.illustration_desktop;pointerEvents=1" parent="1" vertex="1">
          <mxGeometry x="240" y="183" width="100" height="91" as="geometry" />
        </mxCell>
        <mxCell id="s2s8hi-YjFrV1YUbSxP1-24" style="edgeStyle=orthogonalEdgeStyle;rounded=0;orthogonalLoop=1;jettySize=auto;html=1;strokeColor=#006658;fontColor=#5C5C5C;fillColor=#21C0A5;" parent="1" source="s2s8hi-YjFrV1YUbSxP1-20" edge="1">
          <mxGeometry relative="1" as="geometry">
            <mxPoint x="390" y="229" as="targetPoint" />
          </mxGeometry>
        </mxCell>
        <mxCell id="s2s8hi-YjFrV1YUbSxP1-28" value="" style="shape=image;verticalLabelPosition=bottom;labelBackgroundColor=default;verticalAlign=top;aspect=fixed;imageAspect=0;image=data:image/png,iVBORw0KGgoAAAANSUhEUgAAAC4AAAA1CAYAAAA+qNlvAAATA0lEQVRoBa1aeXyTVdYuq6V0SdoCLYvd2zRNmnShpW3SJN03ylIqtVDKnqZt2qYs+s3oh4zb54iOig7KqIioMyAIuCEgA4pspVsKIyr+VFRU5mNts/z5fL9z73ubUCqOfv5xf/dd8t773HOec+4558bH7XbjtzcnXG4nnC4nnG4Ha3TvdrvgZr0DbjdvLucAHC4XHG5P++3zuuHz//nY5XKBNwJL7ZeEQL+RFuIaAC3ml78ZfsxfBu5ywS01AdTt4kAdDgcuX7uOb3+8hA9PnsYzL29D073rUFqzFNNL5yKteA4ySuei4K7FWGBdg4c3Po+9Bw/jqx9+wpWrV9E/MMAWLsCL8UXPNfcfAhcfUU8DsnunkKwLLqcL167fwIXvvsfug4dhve8hyLS5GDEtFT7x2RipysaolFyMTjNgdLqR9aNSDBipMWKEIgc+d2pxR2wG7m6w4aXtb+HTry7g8tWrcDqdkvbEXERDF1w/o8VbJD4UuNPtZtx0Oh24cv0a7J99gY1btyOn8m6MjUzDKI0eofpCBJcVQFZbgqm2Skx7sApRT9YgZuMCRD9RgzsfrcGUP8zBxBUlkFfqMKm0BPJUA0ZFpiPGMAfrnnwORzu6cPnKVSYYl9MBl8sBh5uDFxrx7m8LXCxiwOXChYs/4LWd76Cy3gq5Ug95mgETywoQ1lSOqU/VQvGuBZpjbVB32hDfa0W03cJavN2KxN5W1jSn26He3wzlFjOmrZ6FSZXFCMoyYKwyA9mzFmLzth346sJ3GHAQhQbgJDtghn4rXW4BLlYlKDIwMIC+z77A/U88i9jsCvipchBWUYrItVVQ/GM51J1tiLY3IPKMGZF9vEX1mRHV18AavYuSFhFjbwS1xN4WqDrbkPiOGVMfnIvQeYXw18xAeEoeWtf/GV3/Oof+gX4OXKKswCV6HwIobti1l6eglZ/qsWPp2nWYNL0IQTojQi1liNlaD9WpFsTYLYg4Y2bAqSfwrO9rYM+E1If2fGFmRPdZoOiwQrFjBabYKuFr0CNAo8di233o6OlDf/8NOAfxCO7zfhC4oIWLjMTpwICjH8e7ejCvoR2yFANkBQWIvr8Gig8aENPTyIF5S1W6FpKmPnpI87wjjZiZJuhZXG8Tkj5sQuSjC+BfZEKQJgeVK9tx+uynzL6E9gcxuly4FbjLyUB32M+gqsEGf40eIRUliH6mHopPmhDT2zg44VBgv+reTlrhGiMtxfY2Iul4C6KfWYTxJSZGyeqVq/DT5StwurixksEKDdwCnH707Y8/oWHNegRodQgo1SPmyYVQnmhhquVU4BITQIXqh/bi/bC9BJzR6yynWNQZCxQnrYh+og5Bej38lXo8sGEj221p43JRk6hzi3He6O/Hpte2IzjZiACjCZGP10BxvAmxdi7pSEaJYYCfMSPKu/URh2+ly+AzBtxjC4JGxPvEE1ZErquGX6YRE9RGHPj4mFcYwT0MkzhfhRMOtxuffvk1Jqv1kKXqMaWtEkknrAwA5yT3FDQJSV40LmmuelI/8y6S0QqPo+htgbK3jXkV+o6+YYsYsgD6PqrPguSPWhC2pBS+yTnQFM/D1QGiiQNuJ3cmHLiT/CY5ezca7n0AvpocyKryoTm4apCHYiIhGQaaVHzWDHVXOzTvWBHx2DzEbl6IxJPNkjvkANU9NsT8dQFkSwyIXl+N1I413FUO0QgtmMYn+tACUvetxujsHIyIS8ezr2zj4YEALqI4itqO99jhM1UN/ywT4jfWMX87qH4hIUEViRYkNc1OK0bkTodfsg4BGZmY9mgV89OcVg2I3FQDWbYOcmU+ApWZiH1oPpJ6bR6pSwsgwAScfD1dk4bC2+dCnm5EkCoLVwY4x8l9+wjgFCsstt2LkSodZFUGJB1rvskvC4kTUCZ12ljEJH+uhizVgGBVHgJURgQvKEPSnkbE9TVD/UkrJiwqglxrQLCGt8nt5UjqbftZ4CRtvnE1IO2fqzEmMwV+qlxs2/X24J7jwyI9lwPnvr7ApC1PNyD+LwuZyyM6MKuXOBnFwHKp0OD0nvr4F5Zh9PQs+DNgJsjzjYh8uhYJPVYk7rJgQmEBZKm5LEyQa3SIWj+PfectDBIIUYXNSRogrtstTDNhTRUISc5Dce0SDDgoLCY/LkVlG7e8hlFxmfDN0yP98D0Q3sNjaDQQeQkLYvuaeLM3scHVR1ow2TwT8hQdQjRG+KVnIfy/ZkNxqhnRLy7ARGMR5ClGBGn0kBVmIeXjVXwD8qIfM9QhnGfP7BaotzdhXEoOwtQF6P38PAfudFIw40JZ7UrGvynmMqhP29jKSSIMuKBHnxlJna1Q7DEjdssSKF9dgaj9SxF3uhFJey2YuKgAoek58KW44555UJJPfmkhQgx5CNJkI3BmPpRbV0Jhb+HAiRLDgfV6RhjSP1qDoIpcyNKK8dquvcxIfcjFXLp6FYFKHcYnpiP+qTqmJgLMeMbUJtygGYl7VmJCXSH80jMRbDBh8vIKRD+3AMqjViTvbUa4bSZkcwsw9fEaJHQ2Q/GeGROXFCF0aTESX10BRbeVC0UKvH4JOFGHvNK0tdUI0BjQdv9DTNA+lC92nD0Hf2UuxiRrkbzbE5KSdQtDER5i2l+qEUoSTDYyYwzRGCDL1yPqkRpoj9qQdKwFcbuWI/bgSsT0NSL+dCOidy2C8nATEnol0F5xijB0EtJwi+CusQGqTcsRmJiB4vnLcOXGDR6r7N5/CH6qPIzQpSLtE8nH3rQxcMOhSeJeX4bg2SaMSc2CXAIv1xgRpDcg4qn5DJxYJAMlaYxtRIx6HsOj91wwPHYfDjjXuhnJuxrhm5CKtOL5+PLb7zjwV97chXFJJgSU5iClk4B7tmu6ZlyXdkribcKLSzB1VRVCKwoQOEMHX20OZCY9pqyrhOJEk2TYQyQoqGG3MD/NvIZkO0zaPyNx/jszNAdbMUKVBm1JDcsP2M754t93wDfJhNA5Rmi7hwKnRIBznNRG9InvakLsETPidq6A4uVliNu8DIpXlyN+vxkxnUKKQ4F7xqBxvBt3gR5h3SR5ye2mHG6HjyYD6qJqnOrp4+UJAXxC1a3AuTS4KxSqFypW9bZD070amq7V0HatRixzjwL4zR5DfEMSpFQuubsdlMope1v5hual5VuAnzVDc5QDTyqch086ezjw13fvZVQJrfQA5xSRpM0CH8/mkHzaBuVOCyIemo2wtpkIayzH5FWViNlYA/XptsEgy3uhdK3pXoWYLQsx5d6ZCG+txOS2SkT+TzVU71Ne2sK04E1TtgB7A4uHUo5w4JqS+ej51zkO/N0Pj8BPbcCYjBSknVrLOE3qE7miAEDPlMebMW1VJcZnpSBQk4mpmlyEaA0ImWHA1FWVzHWJTUvYB/X0bUrHaoypTEFIigEhmjzWZKkmBBWYEPNIDfP7TDNefpzAUyCX8k4bRidooS2uwdnzX3LglO34x2djbKIW2t3NzNIZ8D4KMYmb3EBp44jYUI3QXBNC1NRocgPbzgNNOVC/38RickWvFZqeNSxW4e6Mxx4UWClfb8AdajVzpcHKfPa9vzoXAeX5iHytdjAlFHRh858xQ/O6BWPiNcgsrsbFS/+mLd+F7y9dgkyhZzun8rmlzAAZWEYRDpwAJNitiHzyLoQYTJCrjZCrTZBnGuFbbIRyVyNUPe1QH2lFxPoqTLSVIOr9xaA4PGZLHRQv1TEfr+5ZhYQty+Grm44JqQaEp+ay4CusugxRO+tvBW7n0WLihkUIVM5A5bIWlhH5UCGS4vD82YshU5kwpXUmVN3tTNLeLosWQoaadKgJwbYKjKs0YdxMEybfMwuqD5oQ3WNB7HsrEW6phJ9GhwnlJbhz2yKojloxoa4IsnQDwutLod5nRVxPMzQfWBG+tgL+s3LhX5OHaU9XI6Gj8SZXzDluQXxvMyZbyjE+2YgHNjzNYxXKegj4sy+/Cp+EbAQU6KD5SIpVWITG3ZjgOS2GainqT6wMFMXMRKvYYxZErKrmoYDGiNCiQkRvWQzNgRaEzS6FXJWPIGUOJtUVQcXy1wYk9digOWlD0skWxNl5GM0E5M1xSig61iKoVI/g9FK8te+AAE4Sd6H33BcYFzcdAelGxGyqR/QZHsx7pM7DWbYA8uvShiLuldstkBkMCNYaEazOxYRZJYj5x1JoDrUitDwfclUu47VfYibinqtlO6wYg+YQO+RQ4HSf/GYTRmmzEJc1E+cvfMdich+WObsduO5woqxuBfzVesjri5F0giI4aXuWjJMGoWdDvUZ0x0pEPjgfgckGlmRTJBi2rAyx+1dAfbIN8vl5kGl1kkEWQFZXAG3naqYpbryeeYRRUk/zJXZZMbm1AuOSc7HQsgY3nLyc7cPSfso3XU4c6TgNn4QcBOQYELe5HuQdGFApTePApajRK6mI6TAjYv0c+Ct1kGl0CNDnIOrxBVB0WkG1QyqCBmblQK7Nhb8yG75zsxlwAs3G9KLkUOCafS0IyjXAT6HDngOHvDIgKuVSGdnpQL/TicqGdvgpZmDyskokHfQAp0lEqMvoIwGniWJ6LFDsWokJC8ogK9Fj2qoqKPdZWXRIARcZZET7XITOLkTIggJEbqyRhOJFP0nCYqemOWhTivjjXASmGJBZXoNLly/zWj3POd0s5SfwVFI+droLk7S5CM4qwJT7qpB4ioPnkvHazocERbEUv7y7HNGv1yPxYBMSuq0s2KIFq7ptUB9qQdyO5Uh424yEjqbBvWGohOPtzWzBxP+EvSvgV6jH2NhU/O2NN3kVS2T5VFOhEwcmdbcb127cwJ+e2gTfO6dDXmhC1LO1SOwm8Fw6wxkRvWNcJen3NbH0jhmttGNSXE7PRco33BiC06zw1NeApK5WyNpKMTZVh9xZtfjx0iWp/CZxnAGXTh4o7Xc5nPj62++woHkt7ojPYOqN37wcyi4qJ3h2UQI7KC0Wu1MhiAyXu09vcOQu2cKkmIePI/3Oy/Wx5/YGKHvaEPfXOgSbTBgZnY6Dx0/x0hvLj4cAF6VmqhQ5HQ509NhRUWfBuIRMTKwsYmErpV1c8tyovF0lDxF41u+9QO7qpOiSAiYprveM41mAWFDCexYEV5VhdPR0tK57hNXKqeDJbdGrkjUIWpz5uJxwOAfw0ckO6OYtxZgkHWSlJiQ+v5TVs5mhMo8g3Bif3NsvEwimESmTEjG9B7DHo/DF8QqW8lAjZIvKMCJZh9TyGlz88Se4JUkLWksFoZuPKUQdkR1lOB040dWDotpl8EvKxLj0DESsnQvtERuraTPpnZUACNdGVBHZjgA/XC/RixZC9KIERXWiFWG2cuY6qXi07+MTNx1qeQv4lmotP6KTziLZoasTZz8/j/mNazEpJQ/jkzIgrzQhZkMdkg+1IrKLgFtAJeLIM5wKzG0OB9brmaAFaS/OboXmsA3R/30X/DN1kKmN+Nsbu3D52hVe0/Q6NRHghwHuAS1OjR0uJ76+eBGPPPM8tOU1mJCSh7GKNITMykPcE4uhequRuTuqocd2Uk7Jw2Hukz2pn7fBCsrE9zQj+UAbov9wNwKz9JgYr8fjz7yMHy/9G07pmFKA9e6HAc4PXynwogCMnQAwjvHTgJPddixfux6JRfMRlpaHgORsjMlIQ/jyUsSsq4ViyzIkdPFqLXGXKEDUYUClnnuYBsR1N0LxlhlhrbMwbnoWIrJL8dgLr+DipUssBBFnn96AxfUwwG/mvPgh9Zz/LjbogaPH0Hzfeuir6pFYNAfhMwrgl5wN2V15iD9OxkoZFOc70YLAMrfY18COExOPWxGzdQnkNcUYp9EhqaAKj23eypIEhyRpdoTya48LvQGLawGcikiMRm4Xzn/zLXbvO4D61nsxLiEDwfMLoDxBWZQEVjomIQOM7WtmlSzFjpW4855aBBeaEJqaj/LFLdj+9gf432tXWdjhdNABGp2u8QKnmN+7/1US93xIdOK2QMZ8/cYNvLj9LYyISkXI3SVIPEG7pxRF9vHMSXWyBfG7VmDa+nkIn1uOkaoZiMgpg+1PG3Cyuwf90mkyBXtUQWYHDaz3HGd65v/N/56gwTzNG3jo3aVQHedlPCq5KY40IeHVpYi4fx5CakoxUjsDAdHTMa9pNTa/uRvffP8DA8m0KJ2u8Zq952zfG7C4/o0Sv9kOBPBRcdMxpXomUnfaELttCaY8MhvB5jL4lxdiTGoOxquyULakGU++sBW9n57DgFTiFhSk3lsg/PrmuX5/4Dt2Y3TCDMizTJBVlCAgvwijU3XwiUtBVE4xLH98GDv3/xOffn4eV/v74WDSHZ4GAtzt+t9P4n/fCZ9wFUbGpcEnSovIrFLU2/6ATW+8iZM9dly4+D362Z8LHGA1eenA7HbgbvfudwO+Z/8h3PPwBmzd8x4+6uzFZ199w0LRq9evw+EY4GCZlIm7FDBxDt8O3O3eeZ1zcrV5801ciwHEPeci5x5d00ZB//a5dv06+uk80mvHG/xmGD57jyPm+E/7/wMZCPQl76T6AQAAAABJRU5ErkJggg==;" parent="1" vertex="1">
          <mxGeometry x="228" y="160" width="46" height="53" as="geometry" />
        </mxCell>
        <mxCell id="s2s8hi-YjFrV1YUbSxP1-29" value="" style="sketch=0;outlineConnect=0;fontColor=#232F3E;gradientColor=none;strokeColor=#ffffff;fillColor=#232F3E;dashed=0;verticalLabelPosition=middle;verticalAlign=bottom;align=center;html=1;whiteSpace=wrap;fontSize=10;fontStyle=1;spacing=3;shape=mxgraph.aws4.productIcon;prIcon=mxgraph.aws4.comprehend;" parent="1" vertex="1">
          <mxGeometry x="245" y="213" width="30" height="27" as="geometry" />
        </mxCell>
      </root>
    </mxGraphModel>
  </diagram>
</mxfile>
